<mxfile host="app.diagrams.net" modified="2024-02-16T12:00:07.122Z" agent="Mozilla/5.0 (Windows NT 10.0; Win64; x64) AppleWebKit/537.36 (KHTML, like Gecko) Chrome/121.0.0.0 Safari/537.36" etag="CZYOUy9btW81-yqN0gsH" version="23.1.5" type="github">
  <diagram name="Страница — 1" id="jh66NGYMjzpbQGLFbSdY">
    <mxGraphModel dx="1961" dy="654" grid="1" gridSize="10" guides="1" tooltips="1" connect="1" arrows="1" fold="1" page="1" pageScale="1" pageWidth="827" pageHeight="1169" math="0" shadow="0">
      <root>
        <mxCell id="0" />
        <mxCell id="1" parent="0" />
        <mxCell id="aA6Nb55N2Nn-vKZ3lqx5-1" value="Менеджер" style="shape=umlActor;verticalLabelPosition=bottom;verticalAlign=top;html=1;outlineConnect=0;" vertex="1" parent="1">
          <mxGeometry x="10" y="360" width="30" height="60" as="geometry" />
        </mxCell>
        <mxCell id="aA6Nb55N2Nn-vKZ3lqx5-2" value="Кладовщик" style="shape=umlActor;verticalLabelPosition=bottom;verticalAlign=top;html=1;outlineConnect=0;" vertex="1" parent="1">
          <mxGeometry x="750" y="110" width="30" height="60" as="geometry" />
        </mxCell>
        <mxCell id="aA6Nb55N2Nn-vKZ3lqx5-5" value="создать заказ" style="ellipse;whiteSpace=wrap;html=1;" vertex="1" parent="1">
          <mxGeometry x="50" y="210" width="120" height="80" as="geometry" />
        </mxCell>
        <mxCell id="aA6Nb55N2Nn-vKZ3lqx5-8" value="добавление в базу данных нового клиента" style="ellipse;whiteSpace=wrap;html=1;" vertex="1" parent="1">
          <mxGeometry x="300" y="10" width="120" height="80" as="geometry" />
        </mxCell>
        <mxCell id="aA6Nb55N2Nn-vKZ3lqx5-12" value="внесение данных о клиенте" style="ellipse;whiteSpace=wrap;html=1;" vertex="1" parent="1">
          <mxGeometry x="140" y="70" width="120" height="80" as="geometry" />
        </mxCell>
        <mxCell id="aA6Nb55N2Nn-vKZ3lqx5-13" value="внесение данных о доставке" style="ellipse;whiteSpace=wrap;html=1;" vertex="1" parent="1">
          <mxGeometry x="210" y="150" width="120" height="80" as="geometry" />
        </mxCell>
        <mxCell id="aA6Nb55N2Nn-vKZ3lqx5-14" value="добавление товара в заказ" style="ellipse;whiteSpace=wrap;html=1;" vertex="1" parent="1">
          <mxGeometry x="234" y="240" width="120" height="80" as="geometry" />
        </mxCell>
        <mxCell id="aA6Nb55N2Nn-vKZ3lqx5-15" value="проверка наличия товара на складе" style="ellipse;whiteSpace=wrap;html=1;" vertex="1" parent="1">
          <mxGeometry x="390" y="250" width="120" height="80" as="geometry" />
        </mxCell>
        <mxCell id="aA6Nb55N2Nn-vKZ3lqx5-16" value="" style="endArrow=classic;html=1;rounded=0;" edge="1" parent="1" source="aA6Nb55N2Nn-vKZ3lqx5-14" target="aA6Nb55N2Nn-vKZ3lqx5-15">
          <mxGeometry relative="1" as="geometry">
            <mxPoint x="370" y="420" as="sourcePoint" />
            <mxPoint x="490" y="400" as="targetPoint" />
          </mxGeometry>
        </mxCell>
        <mxCell id="aA6Nb55N2Nn-vKZ3lqx5-17" value="include" style="edgeLabel;resizable=0;html=1;;align=center;verticalAlign=middle;" connectable="0" vertex="1" parent="aA6Nb55N2Nn-vKZ3lqx5-16">
          <mxGeometry relative="1" as="geometry" />
        </mxCell>
        <mxCell id="aA6Nb55N2Nn-vKZ3lqx5-18" value="" style="endArrow=classic;html=1;rounded=0;" edge="1" parent="1" source="aA6Nb55N2Nn-vKZ3lqx5-5" target="aA6Nb55N2Nn-vKZ3lqx5-14">
          <mxGeometry relative="1" as="geometry">
            <mxPoint x="234" y="430" as="sourcePoint" />
            <mxPoint x="354" y="410" as="targetPoint" />
          </mxGeometry>
        </mxCell>
        <mxCell id="aA6Nb55N2Nn-vKZ3lqx5-19" value="include" style="edgeLabel;resizable=0;html=1;;align=center;verticalAlign=middle;" connectable="0" vertex="1" parent="aA6Nb55N2Nn-vKZ3lqx5-18">
          <mxGeometry relative="1" as="geometry" />
        </mxCell>
        <mxCell id="aA6Nb55N2Nn-vKZ3lqx5-24" value="Курьер" style="shape=umlActor;verticalLabelPosition=bottom;verticalAlign=top;html=1;outlineConnect=0;" vertex="1" parent="1">
          <mxGeometry x="750" y="370" width="30" height="60" as="geometry" />
        </mxCell>
        <mxCell id="aA6Nb55N2Nn-vKZ3lqx5-25" value="" style="endArrow=classic;html=1;rounded=0;" edge="1" parent="1" source="aA6Nb55N2Nn-vKZ3lqx5-5" target="aA6Nb55N2Nn-vKZ3lqx5-12">
          <mxGeometry relative="1" as="geometry">
            <mxPoint x="220" y="300" as="sourcePoint" />
            <mxPoint x="340" y="280" as="targetPoint" />
          </mxGeometry>
        </mxCell>
        <mxCell id="aA6Nb55N2Nn-vKZ3lqx5-26" value="include" style="edgeLabel;resizable=0;html=1;;align=center;verticalAlign=middle;" connectable="0" vertex="1" parent="aA6Nb55N2Nn-vKZ3lqx5-25">
          <mxGeometry relative="1" as="geometry" />
        </mxCell>
        <mxCell id="aA6Nb55N2Nn-vKZ3lqx5-27" value="" style="endArrow=classic;html=1;rounded=0;" edge="1" parent="1" source="aA6Nb55N2Nn-vKZ3lqx5-5" target="aA6Nb55N2Nn-vKZ3lqx5-13">
          <mxGeometry relative="1" as="geometry">
            <mxPoint x="269" y="370" as="sourcePoint" />
            <mxPoint x="294" y="244" as="targetPoint" />
          </mxGeometry>
        </mxCell>
        <mxCell id="aA6Nb55N2Nn-vKZ3lqx5-28" value="include" style="edgeLabel;resizable=0;html=1;;align=center;verticalAlign=middle;" connectable="0" vertex="1" parent="aA6Nb55N2Nn-vKZ3lqx5-27">
          <mxGeometry relative="1" as="geometry" />
        </mxCell>
        <mxCell id="aA6Nb55N2Nn-vKZ3lqx5-29" value="" style="endArrow=classic;html=1;rounded=0;" edge="1" parent="1" source="aA6Nb55N2Nn-vKZ3lqx5-12" target="aA6Nb55N2Nn-vKZ3lqx5-8">
          <mxGeometry relative="1" as="geometry">
            <mxPoint x="258" y="150" as="sourcePoint" />
            <mxPoint x="294" y="28" as="targetPoint" />
          </mxGeometry>
        </mxCell>
        <mxCell id="aA6Nb55N2Nn-vKZ3lqx5-30" value="extend" style="edgeLabel;resizable=0;html=1;;align=center;verticalAlign=middle;" connectable="0" vertex="1" parent="aA6Nb55N2Nn-vKZ3lqx5-29">
          <mxGeometry relative="1" as="geometry" />
        </mxCell>
        <mxCell id="aA6Nb55N2Nn-vKZ3lqx5-31" value="передать заказ на сборку&amp;nbsp;" style="ellipse;whiteSpace=wrap;html=1;" vertex="1" parent="1">
          <mxGeometry x="80" y="490" width="120" height="80" as="geometry" />
        </mxCell>
        <mxCell id="aA6Nb55N2Nn-vKZ3lqx5-33" value="" style="endArrow=classic;html=1;rounded=0;" edge="1" parent="1" source="aA6Nb55N2Nn-vKZ3lqx5-1" target="aA6Nb55N2Nn-vKZ3lqx5-31">
          <mxGeometry width="50" height="50" relative="1" as="geometry">
            <mxPoint x="310" y="500" as="sourcePoint" />
            <mxPoint x="360" y="450" as="targetPoint" />
          </mxGeometry>
        </mxCell>
        <mxCell id="aA6Nb55N2Nn-vKZ3lqx5-34" value="" style="endArrow=classic;html=1;rounded=0;" edge="1" parent="1" source="aA6Nb55N2Nn-vKZ3lqx5-1" target="aA6Nb55N2Nn-vKZ3lqx5-5">
          <mxGeometry width="50" height="50" relative="1" as="geometry">
            <mxPoint x="135" y="415" as="sourcePoint" />
            <mxPoint x="185" y="365" as="targetPoint" />
          </mxGeometry>
        </mxCell>
        <mxCell id="aA6Nb55N2Nn-vKZ3lqx5-35" value="изменить заказ" style="ellipse;whiteSpace=wrap;html=1;" vertex="1" parent="1">
          <mxGeometry x="110" y="300" width="120" height="80" as="geometry" />
        </mxCell>
        <mxCell id="aA6Nb55N2Nn-vKZ3lqx5-36" value="" style="endArrow=classic;html=1;rounded=0;" edge="1" parent="1" source="aA6Nb55N2Nn-vKZ3lqx5-1" target="aA6Nb55N2Nn-vKZ3lqx5-35">
          <mxGeometry width="50" height="50" relative="1" as="geometry">
            <mxPoint x="60" y="402" as="sourcePoint" />
            <mxPoint x="127" y="360" as="targetPoint" />
          </mxGeometry>
        </mxCell>
        <mxCell id="aA6Nb55N2Nn-vKZ3lqx5-37" value="удалить заказ" style="ellipse;whiteSpace=wrap;html=1;" vertex="1" parent="1">
          <mxGeometry x="110" y="400" width="120" height="80" as="geometry" />
        </mxCell>
        <mxCell id="aA6Nb55N2Nn-vKZ3lqx5-38" value="" style="endArrow=classic;html=1;rounded=0;" edge="1" parent="1" source="aA6Nb55N2Nn-vKZ3lqx5-1" target="aA6Nb55N2Nn-vKZ3lqx5-37">
          <mxGeometry width="50" height="50" relative="1" as="geometry">
            <mxPoint x="50" y="395" as="sourcePoint" />
            <mxPoint x="127" y="368" as="targetPoint" />
          </mxGeometry>
        </mxCell>
        <mxCell id="aA6Nb55N2Nn-vKZ3lqx5-41" value="принять заказ на сборку" style="ellipse;whiteSpace=wrap;html=1;" vertex="1" parent="1">
          <mxGeometry x="550" y="120" width="120" height="80" as="geometry" />
        </mxCell>
        <mxCell id="aA6Nb55N2Nn-vKZ3lqx5-42" value="" style="endArrow=classic;html=1;rounded=0;" edge="1" parent="1" source="aA6Nb55N2Nn-vKZ3lqx5-2" target="aA6Nb55N2Nn-vKZ3lqx5-41">
          <mxGeometry width="50" height="50" relative="1" as="geometry">
            <mxPoint x="730" y="170" as="sourcePoint" />
            <mxPoint x="780" y="120" as="targetPoint" />
          </mxGeometry>
        </mxCell>
        <mxCell id="aA6Nb55N2Nn-vKZ3lqx5-43" value="передать заказ на доставку" style="ellipse;whiteSpace=wrap;html=1;" vertex="1" parent="1">
          <mxGeometry x="600" y="200" width="120" height="80" as="geometry" />
        </mxCell>
        <mxCell id="aA6Nb55N2Nn-vKZ3lqx5-44" value="" style="endArrow=classic;html=1;rounded=0;" edge="1" parent="1" target="aA6Nb55N2Nn-vKZ3lqx5-43" source="aA6Nb55N2Nn-vKZ3lqx5-2">
          <mxGeometry width="50" height="50" relative="1" as="geometry">
            <mxPoint x="490" y="263" as="sourcePoint" />
            <mxPoint x="790" y="240" as="targetPoint" />
          </mxGeometry>
        </mxCell>
        <mxCell id="aA6Nb55N2Nn-vKZ3lqx5-45" value="принять товар на склад" style="ellipse;whiteSpace=wrap;html=1;" vertex="1" parent="1">
          <mxGeometry x="600" y="30" width="120" height="80" as="geometry" />
        </mxCell>
        <mxCell id="aA6Nb55N2Nn-vKZ3lqx5-46" value="" style="endArrow=classic;html=1;rounded=0;" edge="1" parent="1" target="aA6Nb55N2Nn-vKZ3lqx5-45" source="aA6Nb55N2Nn-vKZ3lqx5-2">
          <mxGeometry width="50" height="50" relative="1" as="geometry">
            <mxPoint x="480" y="60" as="sourcePoint" />
            <mxPoint x="780" y="30" as="targetPoint" />
          </mxGeometry>
        </mxCell>
        <mxCell id="aA6Nb55N2Nn-vKZ3lqx5-48" value="принять заказ на доставку" style="ellipse;whiteSpace=wrap;html=1;" vertex="1" parent="1">
          <mxGeometry x="560" y="320" width="120" height="80" as="geometry" />
        </mxCell>
        <mxCell id="aA6Nb55N2Nn-vKZ3lqx5-49" value="" style="endArrow=classic;html=1;rounded=0;" edge="1" parent="1" source="aA6Nb55N2Nn-vKZ3lqx5-24" target="aA6Nb55N2Nn-vKZ3lqx5-48">
          <mxGeometry width="50" height="50" relative="1" as="geometry">
            <mxPoint x="510" y="410.9677419354839" as="sourcePoint" />
            <mxPoint x="810" y="380" as="targetPoint" />
          </mxGeometry>
        </mxCell>
        <mxCell id="aA6Nb55N2Nn-vKZ3lqx5-50" value="перевести статус доставки: &quot;доставлено&quot;" style="ellipse;whiteSpace=wrap;html=1;" vertex="1" parent="1">
          <mxGeometry x="590" y="420" width="120" height="80" as="geometry" />
        </mxCell>
        <mxCell id="aA6Nb55N2Nn-vKZ3lqx5-51" value="" style="endArrow=classic;html=1;rounded=0;" edge="1" parent="1" target="aA6Nb55N2Nn-vKZ3lqx5-50" source="aA6Nb55N2Nn-vKZ3lqx5-24">
          <mxGeometry width="50" height="50" relative="1" as="geometry">
            <mxPoint x="510" y="514" as="sourcePoint" />
            <mxPoint x="820" y="490" as="targetPoint" />
          </mxGeometry>
        </mxCell>
      </root>
    </mxGraphModel>
  </diagram>
</mxfile>
